<svg height='300px' width='300px'  fill="#000000" xmlns:dc="http://purl.org/dc/elements/1.1/" xmlns:cc="http://creativecommons.org/ns#" xmlns:rdf="http://www.w3.org/1999/02/22-rdf-syntax-ns#" xmlns:svg="http://www.w3.org/2000/svg" xmlns="http://www.w3.org/2000/svg" xmlns:sodipodi="http://sodipodi.sourceforge.net/DTD/sodipodi-0.dtd" xmlns:inkscape="http://www.inkscape.org/namespaces/inkscape" viewBox="0 0 16.933333 16.933334" version="1.1" x="0px" y="0px"><g transform="translate(0,-280.06665)"><path style="color:#000000;font-style:normal;font-variant:normal;font-weight:normal;font-stretch:normal;font-size:medium;line-height:normal;font-family:sans-serif;font-variant-ligatures:normal;font-variant-position:normal;font-variant-caps:normal;font-variant-numeric:normal;font-variant-alternates:normal;font-feature-settings:normal;text-indent:0;text-align:start;text-decoration:none;text-decoration-line:none;text-decoration-style:solid;text-decoration-color:#000000;letter-spacing:normal;word-spacing:normal;text-transform:none;writing-mode:lr-tb;direction:ltr;text-orientation:mixed;dominant-baseline:auto;baseline-shift:baseline;text-anchor:start;white-space:normal;shape-padding:0;clip-rule:nonzero;display:inline;overflow:visible;visibility:visible;opacity:1;isolation:auto;mix-blend-mode:normal;color-interpolation:sRGB;color-interpolation-filters:linearRGB;solid-color:#000000;solid-opacity:1;vector-effect:none;fill:#000000;fill-opacity:1;fill-rule:nonzero;stroke:none;stroke-width:0.5291667;stroke-linecap:round;stroke-linejoin:round;stroke-miterlimit:4;stroke-dasharray:none;stroke-dashoffset:0;stroke-opacity:1;paint-order:normal;color-rendering:auto;image-rendering:auto;shape-rendering:auto;text-rendering:auto;enable-background:accumulate" d="m 1.3182702,282.44672 a 0.26460977,0.26460977 0 0 0 -0.259926,0.26975 v 0.52503 2.6448 2.64635 2.64635 2.6448 0.52555 a 0.26465001,0.26465001 0 1 0 0.529166,0 v -0.25993 h 1.585939 v 0.26355 a 0.26460982,0.26460982 0 0 0 0.265615,0.26562 H 13.49376 a 0.26460982,0.26460982 0 0 0 0.264055,-0.26562 v -0.26355 h 1.5875 v 0.25993 a 0.26484792,0.26484792 0 0 0 0.529695,0 v -0.52555 -2.6448 -2.64635 -2.64635 -2.6448 -0.52503 a 0.26460977,0.26460977 0 0 0 -0.269769,-0.26975 0.26460977,0.26460977 0 0 0 -0.259926,0.26975 v 0.25942 h -1.5875 v -0.26355 A 0.26460982,0.26460982 0 0 0 13.49376,282.44672 H 3.4390642 a 0.26460982,0.26460982 0 0 0 -0.265615,0.26562 v 0.26355 h -1.585939 v -0.25942 a 0.26460977,0.26460977 0 0 0 -0.26924,-0.26975 z m 0.26924,1.05885 h 1.585939 v 2.11718 h -1.585939 z m 12.1703048,0 h 1.5875 v 2.11718 h -1.5875 z m -6.3773848,1.07229 a 0.26452645,0.26452645 0 0 1 0.02738,0 h 2.117196 a 0.26452645,0.26452645 0 0 1 0.264054,0.26355 v 4.49791 h 1.2965648 a 0.26452645,0.26452645 0 0 1 0.187589,0.45114 l -2.6189778,2.61947 a 0.26452645,0.26452645 0 0 1 -0.375153,0 l -2.618978,-2.61947 a 0.26452645,0.26452645 0 0 1 0.187087,-0.45114 h 1.295003 v -4.49791 a 0.26452645,0.26452645 0 0 1 0.238231,-0.26355 z m -5.79292,1.57406 h 1.585939 v 2.11512 h -1.585939 z m 12.1703048,0 h 1.5875 v 2.11512 h -1.5875 z M 1.5875102,288.7962 h 1.585939 v 2.11719 h -1.585939 z m 12.1703048,0 h 1.5875 v 2.11719 h -1.5875 z m -12.1703048,2.64687 h 1.585939 v 2.11718 h -1.585939 z m 12.1703048,0 h 1.5875 v 2.11718 h -1.5875 z"></path></g></svg>